<svg xmlns="http://www.w3.org/2000/svg" xmlns:xlink="http://www.w3.org/1999/xlink" viewBox="0 0 1024 1024" width="1024" height="1024" preserveAspectRatio="xMidYMid meet" style="width: 100%; height: 100%; transform: translate3d(0px, 0px, 0px); content-visibility: visible;" id="Folded Hands"><defs><clipPath id="__lottie_element_1252"><rect width="1024" height="1024" x="0" y="0"/></clipPath><g id="__lottie_element_1265"><g transform="matrix(1,0,0,1,0,0)" opacity="1" style="display: block;"><g opacity="1" transform="matrix(1,0,0,1,667.2000122070312,472)"><path fill="rgb(255,201,40)" fill-opacity="1" d=" M-169.01600646972656,-358.0899963378906 C-170.45199584960938,-384.45098876953125 -157.8730010986328,-403.5639953613281 -125.03500366210938,-403.75 C-104.22200012207031,-404.0830078125 -91.45700073242188,-390.35699462890625 -89.16300201416016,-377.6629943847656 C-87.66699981689453,-364.9259948730469 -83.89399719238281,-325.0719909667969 -80.58300018310547,-308.427001953125 C-77.27300262451172,-291.7829895019531 -64.88600158691406,-255.60299682617188 -47.388999938964844,-184.4499969482422 C-37.13800048828125,-143.3459930419922 -30.472999572753906,-109.25800323486328 -18.288999557495117,-91.49500274658203 C-6.105000019073486,-73.73200225830078 1.6349999904632568,-49.31700134277344 3.4790000915527344,-30.18899917602539 C5.322000026702881,-11.060999870300293 35.64099884033203,104.26100158691406 42.53799819946289,127.91999816894531 C50.23400115966797,151.53599548339844 70.4000015258789,180 88,194.4010009765625 C105.5999984741211,208 132,227.2010040283203 175.1999969482422,247.2010040283203 C175.1999969482422,247.2010040283203 49.599998474121094,409.6000061035156 49.599998474121094,409.6000061035156 C49.599998474121094,409.6000061035156 -62.46799850463867,347.5589904785156 -93.69400024414062,333.2359924316406 C-124.91899871826172,318.9129943847656 -135.0679931640625,264.9859924316406 -135.0679931640625,264.9859924316406 C-135.0679931640625,264.9859924316406 -153.60699462890625,-75.27400207519531 -153.60699462890625,-75.27400207519531 C-153.60699462890625,-75.27400207519531 -169.01600646972656,-358.0899963378906 -169.01600646972656,-358.0899963378906z"/></g><g opacity="1" transform="matrix(1,0,0,1,356.79998779296875,472)"><path fill="rgb(255,201,40)" fill-opacity="1" d=" M134.33200073242188,261.1889953613281 C134.33200073242188,261.1889953613281 125.68399810791016,315.37799072265625 94.86799621582031,330.56201171875 C64.052001953125,345.7460021972656 -49.599998474121094,409.6000061035156 -49.599998474121094,409.6000061035156 C-49.599998474121094,409.6000061035156 -175.1999969482422,247.2010040283203 -175.1999969482422,247.2010040283203 C-132,227.2010040283203 -105.5999984741211,207.2010040283203 -88,192.8000030517578 C-70.4000015258789,178.4010009765625 -54.005001068115234,151.3280029296875 -46.96699905395508,127.50599670410156 C-40.729000091552734,103.66500091552734 -13.623000144958496,-12.454000473022461 -12.310999870300293,-31.625 C-10.99899959564209,-50.797000885009766 -4.761000156402588,-74.63999938964844 7.747000217437744,-93.51300048828125 C20.253999710083008,-112.38600158691406 25.14900016784668,-145.86700439453125 34.25600051879883,-187.23899841308594 C49.770999908447266,-258.85101318359375 61.12699890136719,-294.5610046386719 63.99599838256836,-312.0899963378906 C66.84300231933594,-328.82000732421875 69.50900268554688,-368.76300048828125 70.6500015258789,-381.5379943847656 C71.7490005493164,-392.7120056152344 84.9280014038086,-406.7659912109375 105.74199676513672,-407.010986328125 C138.572998046875,-407.7349853515625 151.656005859375,-388.17999267578125 150.9739990234375,-362.5880126953125 C150.9739990234375,-362.5880126953125 143.26100158691406,-73.4749984741211 143.26100158691406,-73.4749984741211 C143.26100158691406,-73.4749984741211 134.33200073242188,261.1889953613281 134.33200073242188,261.1889953613281z"/></g></g></g><mask id="__lottie_element_1265_1" mask-type="alpha"><use xmlns:ns1="http://www.w3.org/1999/xlink" ns1:href="#__lottie_element_1265"/></mask></defs><g clip-path="url(#__lottie_element_1252)"><g transform="matrix(1,0,0,1.0017000436782837,503,512)" opacity="1" style="display: block;"><g opacity="1" transform="matrix(1,0,0,1,0,0)"><path fill="rgb(181,93,24)" fill-opacity="1" d=" M-31.75,-293 C-55.75,-303 -77.75,-82.5 -77.75,-82.5 C-77.75,-82.5 -12.25,12.5 -12.25,12.5 C-12.25,12.5 0.75,-56.5 -7.75,-92.5 C-16.25,-128.5 3.25,-175.5 3.25,-218.5 C3.25,-261.5 -7.75,-283 -31.75,-293z"/></g></g><g transform="matrix(1,0,0,1.0017000436782837,503,512)" opacity="1" style="display: block;"><g opacity="1" transform="matrix(1,0,0,1,0,0)"><path fill="rgb(181,93,24)" fill-opacity="1" d=" M50.26100158691406,-294.093994140625 C80.90799713134766,-304.093994140625 109,-83.59400177001953 109,-83.59400177001953 C109,-83.59400177001953 25.360000610351562,11.406000137329102 25.360000610351562,11.406000137329102 C25.360000610351562,11.406000137329102 -0.23999999463558197,-46.61199951171875 10.61400032043457,-82.61199951171875 C21.468000411987305,-118.61199951171875 4.566999912261963,-191.5679931640625 4.566999912261963,-234.5679931640625 C4.566999912261963,-277.5679931640625 19.61400032043457,-284.093994140625 50.26100158691406,-294.093994140625z"/></g></g><g transform="matrix(1,0,0,1,0,0)" opacity="1" style="display: block;"><g opacity="1" transform="matrix(1,0,0,1,591.2780151367188,583.7750244140625)"><path fill="rgb(181,94,24)" fill-opacity="1" d=" M-42.02399826049805,-200.11399841308594 C-61.58000183105469,-231.22500610351562 -89.4990005493164,-216.3300018310547 -95.61000061035156,-199.4409942626953 C-101.72200012207031,-182.552001953125 -101.66600036621094,-132.66299438476562 -91.38800048828125,-88.21900177001953 C-81.11000061035156,-43.775001525878906 -102.05599975585938,105.33699798583984 -53.16699981689453,157.781005859375 C-4.2779998779296875,210.22500610351562 -22.055999755859375,69.78099822998047 -21.16699981689453,66.2249984741211 C-20.277999877929688,62.66999816894531 -42.02399826049805,-200.11399841308594 -42.02399826049805,-200.11399841308594z"/></g><g opacity="1" transform="matrix(1,0,0,1,592.2269897460938,442.1730041503906)"><path fill="rgb(181,94,24)" fill-opacity="1" d=" M-52.24399948120117,258.8269958496094 C-52.24399948120117,258.8269958496094 -48.9900016784668,304.3949890136719 -48.9900016784668,304.3949890136719 C-75.65699768066406,257.28399658203125 -85.89299774169922,-187.9510040283203 -85.00399780273438,-254.61700439453125 C-84.11599731445312,-321.28399658203125 -67.58799743652344,-325.4320068359375 -42.106998443603516,-328.3949890136719 C-42.106998443603516,-328.3949890136719 -48.560001373291016,-207.5070037841797 -48.560001373291016,-207.5070037841797 C-48.560001373291016,-207.5070037841797 -52.24399948120117,258.8269958496094 -52.24399948120117,258.8269958496094z"/></g><g opacity="1" transform="matrix(1,0,0,1,434.4159851074219,588.3900146484375)"><path fill="rgb(181,94,24)" fill-opacity="1" d=" M30.024999618530273,-203.11500549316406 C49.58000183105469,-234.2259979248047 77.5,-219.3300018310547 83.61100006103516,-202.4409942626953 C89.72200012207031,-185.552001953125 95.16699981689453,-137.66299438476562 84.88899993896484,-93.21900177001953 C74.61100006103516,-48.77399826049805 102.55599975585938,93.83599853515625 53.66699981689453,146.281005859375 C4.7779998779296875,198.72500610351562 7.056000232696533,90.78099822998047 6.166999816894531,87.2249984741211 C5.2779998779296875,83.66899871826172 30.024999618530273,-203.11500549316406 30.024999618530273,-203.11500549316406z"/></g><g opacity="1" transform="matrix(1,0,0,1,433.4670104980469,446.7879943847656)"><path fill="rgb(181,94,24)" fill-opacity="1" d=" M37.244998931884766,279.8269958496094 C37.244998931884766,279.8269958496094 33.9900016784668,325.39599609375 33.9900016784668,325.39599609375 C60.65700149536133,278.2850036621094 69.89299774169922,-184.9510040283203 69.00399780273438,-251.6179962158203 C68.11599731445312,-318.28399658203125 51.5880012512207,-322.4320068359375 26.10700035095215,-325.39599609375 C26.10700035095215,-325.39599609375 32.56100082397461,-204.50599670410156 32.56100082397461,-204.50599670410156 C32.56100082397461,-204.50599670410156 37.244998931884766,279.8269958496094 37.244998931884766,279.8269958496094z"/></g></g><g mask="url(#__lottie_element_1265_1)" style="display: block;"><g transform="matrix(1,0,0,1,0,0)" opacity="1"><g opacity="1" transform="matrix(1,0,0,1,667.2000122070312,472)"><path fill="rgb(255,201,40)" fill-opacity="1" d=" M-169.01600646972656,-358.0899963378906 C-170.45199584960938,-384.45098876953125 -157.8730010986328,-403.5639953613281 -125.03500366210938,-403.75 C-104.22200012207031,-404.0830078125 -91.45700073242188,-390.35699462890625 -89.16300201416016,-377.6629943847656 C-87.66699981689453,-364.9259948730469 -83.89399719238281,-325.0719909667969 -80.58300018310547,-308.427001953125 C-77.27300262451172,-291.7829895019531 -64.88600158691406,-255.60299682617188 -47.388999938964844,-184.4499969482422 C-37.13800048828125,-143.3459930419922 -30.472999572753906,-109.25800323486328 -18.288999557495117,-91.49500274658203 C-6.105000019073486,-73.73200225830078 1.6349999904632568,-49.31700134277344 3.4790000915527344,-30.18899917602539 C5.322000026702881,-11.060999870300293 35.64099884033203,104.26100158691406 42.53799819946289,127.91999816894531 C50.23400115966797,151.53599548339844 70.4000015258789,180 88,194.4010009765625 C105.5999984741211,208 132,227.2010040283203 175.1999969482422,247.2010040283203 C175.1999969482422,247.2010040283203 49.599998474121094,409.6000061035156 49.599998474121094,409.6000061035156 C49.599998474121094,409.6000061035156 -62.46799850463867,347.5589904785156 -93.69400024414062,333.2359924316406 C-124.91899871826172,318.9129943847656 -135.0679931640625,264.9859924316406 -135.0679931640625,264.9859924316406 C-135.0679931640625,264.9859924316406 -169.01600646972656,-358.0899963378906 -169.01600646972656,-358.0899963378906z"/></g><g opacity="1" transform="matrix(1,0,0,1,679.2000122070312,394.3999938964844)"><path fill="rgb(249,167,0)" fill-opacity="1" d=" M163.1999969482422,353.6000061035156 C163.1999969482422,353.6000061035156 91.19999694824219,304.79998779296875 69.5999984741211,288.79998779296875 C48,273.6000061035156 18.29199981689453,245.4459991455078 11.888999938964844,216.1510009765625 C5.486000061035156,186.8560028076172 -13.071000099182129,110.9530029296875 -17.485000610351562,88.76000213623047 C-21.01300048828125,68.12100219726562 -23.959999084472656,43.44499969482422 -29.92799949645996,22.13800048828125 C-33.95000076293945,7.135000228881836 -49.95500183105469,-7.216000080108643 -55.3849983215332,-33.35900115966797 C-60.01599884033203,-59.54600143432617 -97.2760009765625,-199.3260040283203 -97.2760009765625,-199.3260040283203 C-97.2760009765625,-199.3260040283203 -112.52300262451172,-258.5840148925781 -113.21900177001953,-271.364990234375 C-114.5250015258789,-295.3299865722656 -118.13999938964844,-317.5660095214844 -146.18499755859375,-317.6400146484375 C-174.2310028076172,-317.7139892578125 -165.23899841308594,-343.8420104980469 -164.5709991455078,-346.2820129394531 C-163.05999755859375,-347.9670104980469 -99.86699676513672,-349.8080139160156 -99.86699676513672,-349.8080139160156 C-99.86699676513672,-349.8080139160156 178.39999389648438,304.79998779296875 178.39999389648438,304.79998779296875 C178.39999389648438,304.79998779296875 163.1999969482422,353.6000061035156 163.1999969482422,353.6000061035156z"/></g><g opacity="1" transform="matrix(1,0,0,1,617.2000122070312,772)"><path fill="rgb(249,167,0)" fill-opacity="1" d=" M145.1999969482422,44.79999923706055 C145.1999969482422,44.79999923706055 44.17900085449219,-15.616999626159668 31.673999786376953,-24.549999237060547 C7.9710001945495605,-18.451000213623047 -76.74700164794922,-14.63700008392334 -85.23699951171875,-126.34100341796875 C-98.81600189208984,-125.5999984741211 -106.00599670410156,-125.20899963378906 -106.00599670410156,-125.20899963378906 C-106.00599670410156,-125.20899963378906 -100.12000274658203,56.34000015258789 -100.12000274658203,56.34000015258789 C-100.12000274658203,56.34000015258789 89.19999694824219,132 89.19999694824219,132 C89.19999694824219,132 145.1999969482422,44.79999923706055 145.1999969482422,44.79999923706055z"/></g><g opacity="1" transform="matrix(1,0,0,1,574.7999877929688,391.20001220703125)"><path fill="rgb(181,94,24)" fill-opacity="1" d=" M-8.192000389099121,-315.4700012207031 C-29.266000747680664,-319.92999267578125 -60.375999450683594,-317.4339904785156 -57.459999084472656,-263.9129943847656 C-41.86000061035156,-286.3949890136719 3.265000104904175,-281.64300537109375 10.277999877929688,-241.16400146484375 C15.039999961853027,-212.58099365234375 76.91400146484375,-18.05900001525879 76.91400146484375,-18.05900001525879 C76.91400146484375,-18.05900001525879 54.983001708984375,-8.852999687194824 50.959999084472656,-23.856000900268555 C46.9379997253418,-38.86000061035156 5.743000030517578,-192.0449981689453 2.6510000228881836,-204.6959991455078 C-1.2410000562667847,-217.30299377441406 -3.0840001106262207,-236.42999267578125 -6.627999782562256,-242.64700317382812 C-19.378000259399414,-270.7950134277344 -58.62300109863281,-255.83799743652344 -58.24599838256836,-234.2259979248047 C-57.39099884033203,-203.8280029296875 -55.694000244140625,-172.6739959716797 -54.779998779296875,-155.8990020751953 C-42.20100021362305,-175.01199340820312 -18.14900016784668,-174.72000122070312 -8.21500015258789,-168.8509979248047 C0.8759999871253967,-163.73899841308594 6.989999771118164,-154.45700073242188 8.13700008392334,-148.11000061035156 C16.70400047302246,-108.51799774169922 27.868999481201172,-50.638999938964844 31.13599967956543,-34.79399871826172 C34.40299987792969,-18.947999954223633 42.98500061035156,6.2220001220703125 47.67499923706055,18.785999298095703 C52.409000396728516,32.14799880981445 63.779998779296875,64.37699890136719 65.53600311279297,81.90699768066406 C66.2760009765625,95.48799896240234 51.766998291015625,93.8740005493164 50.44599914550781,84.33200073242188 C47.67300033569336,62.85100173950195 34.53099822998047,27.513999938964844 29.797000885009766,14.152000427246094 C25.062999725341797,0.7889999747276306 16.30699920654297,-27.576000213623047 11.545000076293945,-56.159000396728516 C6.826000213623047,-83.94400024414062 -0.7680000066757202,-120.38500213623047 -3.9040000438690186,-133.83399963378906 C-11.149999618530273,-163.88499450683594 -53.26900100708008,-157.58399963378906 -54.18600082397461,-130.29299926757812 C-55.40700149536133,-108.59500122070312 -56.54100036621094,-85.29900360107422 -48.279998779296875,-51.29800033569336 C-43.15399932861328,-30.746000289916992 -35.85200119018555,29.746000289916992 -45.07699966430664,66.302001953125 C-49.08599853515625,80.94200134277344 -48.31800079345703,109.74299621582031 -47.31700134277344,128.11599731445312 C-46.36000061035156,145.68899536132812 -36.33300018310547,329.1419982910156 -37.59299850463867,335.4159851074219 C-38.92599868774414,342.04901123046875 -42.79899978637695,343.38800048828125 -42.79899978637695,343.38800048828125 C-42.79899978637695,343.38800048828125 -56.37900161743164,344.1289978027344 -56.37900161743164,344.1289978027344 C-56.37900161743164,344.1289978027344 -88.2760009765625,-329.53399658203125 -88.2760009765625,-329.53399658203125 C-88.2760009765625,-329.53399658203125 -6.127999782562256,-336.4129943847656 -6.127999782562256,-336.4129943847656 C-5.329999923706055,-336.4570007324219 12.881999969482422,-311.010009765625 -8.192000389099121,-315.4700012207031z"/></g><g opacity="1" transform="matrix(1,0,0,1,356.79998779296875,472)"><path fill="rgb(255,201,40)" fill-opacity="1" d=" M134.33200073242188,261.1889953613281 C134.33200073242188,261.1889953613281 125.68399810791016,315.37799072265625 94.86799621582031,330.56201171875 C64.052001953125,345.7460021972656 -49.599998474121094,409.6000061035156 -49.599998474121094,409.6000061035156 C-49.599998474121094,409.6000061035156 -175.1999969482422,247.2010040283203 -175.1999969482422,247.2010040283203 C-132,227.2010040283203 -105.5999984741211,207.2010040283203 -88,192.8000030517578 C-70.4000015258789,178.4010009765625 -54.005001068115234,151.3280029296875 -46.96699905395508,127.50599670410156 C-40.729000091552734,103.66500091552734 -13.623000144958496,-12.454000473022461 -12.310999870300293,-31.625 C-10.99899959564209,-50.797000885009766 -4.761000156402588,-74.63999938964844 7.747000217437744,-93.51300048828125 C20.253999710083008,-112.38600158691406 25.14900016784668,-145.86700439453125 34.25600051879883,-187.23899841308594 C49.770999908447266,-258.85101318359375 61.12699890136719,-294.5610046386719 63.99599838256836,-312.0899963378906 C66.84300231933594,-328.82000732421875 69.50900268554688,-368.76300048828125 70.6500015258789,-381.5379943847656 C71.7490005493164,-392.7120056152344 84.9280014038086,-406.7659912109375 105.74199676513672,-407.010986328125 C138.572998046875,-407.7349853515625 151.656005859375,-388.17999267578125 150.9739990234375,-362.5880126953125 C150.9739990234375,-362.5880126953125 134.33200073242188,261.1889953613281 134.33200073242188,261.1889953613281z"/></g><g opacity="1" transform="matrix(1,0,0,1,344.3999938964844,394)"><path fill="rgb(249,167,0)" fill-opacity="1" d=" M-162.8000030517578,354 C-162.8000030517578,354 -90.80000305175781,305.20001220703125 -69.19999694824219,289.20001220703125 C-47.599998474121094,274 -21.260000228881836,246.67599487304688 -15.67199993133545,217.21499633789062 C-10.085000038146973,187.7530059814453 6.357999801635742,111.36399841308594 10.154999732971191,89.05799865722656 C13.107999801635742,68.3290023803711 15.369000434875488,43.58100128173828 20.743999481201172,22.115999221801758 C24.347999572753906,7.006999969482422 39.948001861572266,-7.7820000648498535 44.650001525878906,-34.066001892089844 C48.553001403808594,-60.37200164794922 81.91899871826172,-201.1320037841797 81.91899871826172,-201.1320037841797 C81.91899871826172,-201.1320037841797 95.51499938964844,-260.7909851074219 95.85600280761719,-273.58599853515625 C96.49700164794922,-297.5769958496094 99.49299621582031,-319.9049987792969 127.5260009765625,-320.75799560546875 C155.5590057373047,-321.6109924316406 145.84500122070312,-347.47900390625 145.10899353027344,-349.89898681640625 C144.3730010986328,-352.32000732421875 80.33200073242188,-351.62701416015625 80.33200073242188,-351.62701416015625 C80.33200073242188,-351.62701416015625 -178.8000030517578,306 -178.8000030517578,306 C-178.8000030517578,306 -162.8000030517578,354 -162.8000030517578,354z"/></g><g opacity="1" transform="matrix(1,0,0,1,406.79998779296875,772)"><path fill="rgb(249,167,0)" fill-opacity="1" d=" M-145.1999969482422,44.79999923706055 C-145.1999969482422,44.79999923706055 -44.32600021362305,-15.833999633789062 -32.07500076293945,-25.110000610351562 C-8.211000442504883,-19.672000885009766 76.58000183105469,-18.209999084472656 81.96600341796875,-130.1060028076172 C95.56099700927734,-129.74400329589844 102.75900268554688,-129.552001953125 102.75900268554688,-129.552001953125 C102.75900268554688,-129.552001953125 80.91400146484375,53.09000015258789 80.91400146484375,53.09000015258789 C80.91400146484375,53.09000015258789 -89.19999694824219,132 -89.19999694824219,132 C-89.19999694824219,132 -145.1999969482422,44.79999923706055 -145.1999969482422,44.79999923706055z"/></g><g opacity="1" transform="matrix(1,0,0,1,449.20001220703125,390.79998779296875)"><path fill="rgb(181,94,24)" fill-opacity="1" d=" M-10.883999824523926,-317.65399169921875 C10.057999610900879,-322.6969909667969 41.224998474121094,-321.06500244140625 39.79600143432617,-267.4849853515625 C23.577999114990234,-289.5249938964844 -21.398000717163086,-283.5220031738281 -27.284000396728516,-242.86399841308594 C-31.250999450683594,-214.16000366210938 -87.7030029296875,-17.996000289916992 -87.7030029296875,-17.996000289916992 C-87.7030029296875,-17.996000289916992 -65.52400207519531,-9.402000427246094 -61.91999816894531,-24.51099967956543 C-58.316001892089844,-39.619998931884766 -21.38800048828125,-193.88999938964844 -18.648000717163086,-206.62100219726562 C-15.107999801635742,-219.33200073242188 -13.795999526977539,-238.50399780273438 -10.425999641418457,-244.8159942626953 C1.5379999876022339,-273.3070068359375 41.18199920654297,-259.44500732421875 41.40599822998047,-237.83099365234375 C41.39500045776367,-207.42100524902344 40.5629997253418,-176.23199462890625 40.1150016784668,-159.43800354003906 C27.010000228881836,-178.19400024414062 2.9760000705718994,-177.23399353027344 -6.790999889373779,-171.0919952392578 C-15.737000465393066,-165.72900390625 -21.591999053955078,-156.28199768066406 -22.562000274658203,-149.90499877929688 C-30.025999069213867,-110.09100341796875 -39.58100128173828,-51.92499923706055 -42.40700149536133,-35.99399948120117 C-45.233001708984375,-20.06399917602539 -53.112998962402344,5.335000038146973 -57.452999114990234,18.02400016784668 C-61.792999267578125,30.711999893188477 -72.28500366210938,64.04399871826172 -73.55500030517578,81.61699676513672 C-73.91699981689453,95.21199798583984 -59.45800018310547,93.1969985961914 -58.40299987792969,83.62100219726562 C-56.22700119018555,62.071998596191406 -44.07099914550781,26.384000778198242 -39.709999084472656,12.895000457763672 C-35.347999572753906,-0.5929999947547913 -27.382999420166016,-29.19099998474121 -23.416000366210938,-57.895999908447266 C-19.469999313354492,-85.80000305175781 -12.890999794006348,-122.43800354003906 -10.128999710083008,-135.968994140625 C-3.7200000286102295,-166.20899963378906 38.55799865722656,-161.0800018310547 40.231998443603516,-133.8249969482422 C42.05500030517578,-112.16899871826172 43.834999084472656,-88.91300201416016 36.52000045776367,-54.69599914550781 C31.966999053955078,-34.0099983215332 26.347000122070312,26.660999298095703 36.58300018310547,62.948001861572266 C40.99700164794922,77.47100067138672 41.02799987792969,106.28199768066406 40.53799819946289,124.67500305175781 C40.06800079345703,142.2689971923828 36.29999923706055,328.45098876953125 38.4010009765625,334.9169921875 C40.643001556396484,341.8139953613281 41.974998474121094,340.7900085449219 41.974998474121094,340.7900085449219 C41.974998474121094,340.7900085449219 55.56999969482422,341.15301513671875 55.56999969482422,341.15301513671875 C55.56999969482422,341.15301513671875 68.77799987792969,-333.93499755859375 68.77799987792969,-333.93499755859375 C68.77799987792969,-333.93499755859375 -14.32800006866455,-338.5530090332031 -14.32800006866455,-338.5530090332031 C-14.32800006866455,-338.5530090332031 -31.826000213623047,-312.6109924316406 -10.883999824523926,-317.65399169921875z"/></g></g></g><g transform="matrix(1,0,0,1,0,0)" opacity="1" style="display: block;"><g opacity="1" transform="matrix(1,0,0,1,782.4000244140625,842.7999877929688)"><path fill="rgb(37,133,197)" fill-opacity="1" d=" M156.8000030517578,-87.5989990234375 C120.80000305175781,-101.19999694824219 76,-131.5989990234375 62.400001525878906,-141.1999969482422 C48.79999923706055,-150.7989959716797 40.79999923706055,-142.7989959716797 38.400001525878906,-137.1999969482422 C5.599999904632568,-75.5989990234375 -70.4000015258789,8.401000022888184 -109.5999984741211,49.20100021362305 C-116.80000305175781,56.4010009765625 -112.80000305175781,66.79900360107422 -109.5999984741211,70 C-106.4000015258789,73.19999694824219 -16.799999237060547,150.7989959716797 -16.799999237060547,150.7989959716797 C-16.799999237060547,150.7989959716797 97.5999984741211,74.0009994506836 156.8000030517578,-87.5989990234375z"/></g><g opacity="1" transform="matrix(1,0,0,1,241.60000610351562,842.7999877929688)"><path fill="rgb(37,133,197)" fill-opacity="1" d=" M-156.8000030517578,-87.5989990234375 C-120.80000305175781,-101.19999694824219 -76,-131.5989990234375 -62.400001525878906,-141.1999969482422 C-48.79999923706055,-150.7989959716797 -40.79999923706055,-142.7989959716797 -38.400001525878906,-137.1999969482422 C-5.599999904632568,-75.5989990234375 70.4000015258789,8.401000022888184 109.5999984741211,49.20100021362305 C116.80000305175781,56.4010009765625 112.80000305175781,66.79900360107422 109.5999984741211,70 C106.4000015258789,73.19999694824219 16.799999237060547,150.7989959716797 16.799999237060547,150.7989959716797 C16.799999237060547,150.7989959716797 -97.5999984741211,74.0009994506836 -156.8000030517578,-87.5989990234375z"/></g></g></g></svg>